<svg width="65" height="65" viewBox="0 0 65 65" fill="none" xmlns="http://www.w3.org/2000/svg">
<path opacity="0.4" d="M45.5262 0H18.6725C6.96208 0 0 6.96208 0 18.6404V45.4942C0 57.1725 6.96208 64.1346 18.6404 64.1346H45.4942C57.1725 64.1346 64.1346 57.1725 64.1346 45.4942V18.6404C64.1667 6.96208 57.2046 0 45.5262 0Z" fill="#D17E21"/>
<path d="M38.2417 20.7902H21.7186L22.7773 19.7315C23.7077 18.801 23.7077 17.261 22.7773 16.3306C21.8469 15.4002 20.3069 15.4002 19.3765 16.3306L14.3394 21.3677C13.409 22.2981 13.409 23.8381 14.3394 24.7685L19.3765 29.8058C19.8577 30.287 20.4673 30.5116 21.0769 30.5116C21.6865 30.5116 22.2961 30.287 22.7773 29.8058C23.7077 28.8753 23.7077 27.3353 22.7773 26.4049L21.9432 25.5706H38.2417C42.3483 25.5706 45.7171 28.9074 45.7171 33.0462C45.7171 37.1849 42.3801 40.5216 38.2417 40.5216H22.4565C21.1411 40.5216 20.0502 41.6124 20.0502 42.9278C20.0502 44.2433 21.1411 45.3341 22.4565 45.3341H38.2417C45.0112 45.3341 50.5296 39.8158 50.5296 33.0462C50.5296 26.2766 45.0112 20.7902 38.2417 20.7902Z" fill="#292D32"/>
</svg>
