<svg width="1194" height="834" viewBox="0 0 1194 834" fill="none" xmlns="http://www.w3.org/2000/svg">
<rect width="1194" height="834" fill="#FDDF5D"/>
<rect x="155" width="1039" height="834" fill="#FDDF5D"/>
<rect width="155" height="834" fill="#B791C2"/>
<path d="M299.024 263.64C292.88 263.64 287.163 262.488 281.872 260.184C276.581 257.795 271.931 254.509 267.92 250.328C263.909 246.147 260.752 241.325 258.448 235.864C256.229 230.403 255.12 224.6 255.12 218.456C255.12 212.141 256.229 206.253 258.448 200.792C260.752 195.245 263.909 190.339 267.92 186.072C271.931 181.805 276.581 178.477 281.872 176.088C287.163 173.699 292.88 172.504 299.024 172.504C305.168 172.504 310.885 173.699 316.176 176.088C321.467 178.477 326.075 181.805 330 186.072C334.011 190.253 337.125 195.117 339.344 200.664C341.648 206.211 342.8 212.141 342.8 218.456C342.8 224.259 341.819 229.72 339.856 234.84C337.979 239.875 335.333 244.44 331.92 248.536C333.627 249.219 335.333 249.645 337.04 249.816C338.832 249.987 340.581 249.987 342.288 249.816V264.152C337.936 264.237 334.309 264.195 331.408 264.024C328.507 263.939 326.032 263.512 323.984 262.744C322.021 261.976 320.144 260.781 318.352 259.16C312.208 262.147 305.765 263.64 299.024 263.64ZM299.024 248.28C302.949 248.28 306.704 247.427 310.288 245.72C309.349 243.757 308.325 242.264 307.216 241.24C306.192 240.131 304.827 239.277 303.12 238.68C301.499 237.997 299.365 237.357 296.72 236.76V220.12C302.267 220.973 307.429 222.467 312.208 224.6C317.072 226.733 320.613 229.805 322.832 233.816C324.027 231.597 324.965 229.208 325.648 226.648C326.331 224.003 326.672 221.272 326.672 218.456C326.672 212.995 325.435 207.96 322.96 203.352C320.571 198.744 317.285 195.032 313.104 192.216C308.923 189.4 304.229 187.992 299.024 187.992C293.733 187.992 288.997 189.443 284.816 192.344C280.635 195.16 277.307 198.915 274.832 203.608C272.443 208.216 271.248 213.165 271.248 218.456C271.248 223.661 272.443 228.525 274.832 233.048C277.307 237.571 280.635 241.24 284.816 244.056C289.083 246.872 293.819 248.28 299.024 248.28ZM405.091 263V255.704C402.616 258.093 399.843 260.013 396.771 261.464C393.699 262.915 390.328 263.64 386.659 263.64C380.174 263.64 374.371 262.189 369.251 259.288C364.216 256.301 360.248 252.291 357.347 247.256C354.446 242.221 352.995 236.675 352.995 230.616V173.4H368.227L368.355 230.616C368.355 233.859 369.166 236.803 370.787 239.448C372.408 242.008 374.584 244.013 377.315 245.464C380.131 246.915 383.246 247.64 386.659 247.64C390.243 247.64 393.4 246.915 396.131 245.464C398.947 243.928 401.123 241.88 402.659 239.32C404.28 236.76 405.091 233.859 405.091 230.616V173.4H420.451V228.184C420.451 229.037 420.366 229.805 420.195 230.488H420.451V263H405.091ZM428.12 262.872L455.768 173.4H475.096L502.872 262.872H486.488L480.088 241.24H450.904L444.504 262.872H428.12ZM465.496 192.6L455 227.928H475.992L465.496 192.6ZM581.216 263H561.504L529.76 193.368V262.872H514.4V173.4H535.52L565.856 241.624V173.4H581.216V263ZM658.793 187.48H633.449V263H618.089V187.48H592.745V173.4H658.793V187.48ZM721.091 263V255.704C718.616 258.093 715.843 260.013 712.771 261.464C709.699 262.915 706.328 263.64 702.659 263.64C696.174 263.64 690.371 262.189 685.251 259.288C680.216 256.301 676.248 252.291 673.347 247.256C670.446 242.221 668.995 236.675 668.995 230.616V173.4H684.227L684.355 230.616C684.355 233.859 685.166 236.803 686.787 239.448C688.408 242.008 690.584 244.013 693.315 245.464C696.131 246.915 699.246 247.64 702.659 247.64C706.243 247.64 709.4 246.915 712.131 245.464C714.947 243.928 717.123 241.88 718.659 239.32C720.28 236.76 721.091 233.859 721.091 230.616V173.4H736.451V228.184C736.451 229.037 736.366 229.805 736.195 230.488H736.451V263H721.091ZM749.275 263V173.4H774.107L795.227 229.976L816.347 173.4H841.179V263H825.819V192.216L802.523 250.2H788.059L764.635 192.216V263H749.275ZM256.4 408L256.528 318.4H289.936C294.629 318.4 298.725 319.723 302.224 322.368C305.723 324.928 308.411 328.299 310.288 332.48C312.251 336.576 313.232 340.971 313.232 345.664C313.232 348.992 312.592 352.277 311.312 355.52C310.117 358.763 308.453 361.707 306.32 364.352C304.187 366.997 301.669 369.131 298.768 370.752C295.952 372.288 292.88 373.056 289.552 373.056H271.76V408H256.4ZM271.76 357.952H288.912C291.387 357.952 293.52 356.715 295.312 354.24C297.189 351.68 298.128 348.821 298.128 345.664C298.128 342.165 297.147 339.264 295.184 336.96C293.307 334.656 291.344 333.504 289.296 333.504H271.76V357.952ZM388.647 408H373.287V371.52H340.135V408H324.775V318.4H340.135V357.44H373.287V318.4H388.647V408ZM472.568 318.4L444.152 377.408V408H428.664V377.408L400.12 318.4H415.352L436.344 361.792L457.336 318.4H472.568ZM508.849 409.28C505.009 409.28 501.126 408.683 497.201 407.488C493.361 406.293 489.734 404.672 486.321 402.624C482.993 400.491 480.134 398.144 477.745 395.584L489.137 384.576C491.697 387.221 494.769 389.355 498.353 390.976C502.022 392.597 505.436 393.408 508.593 393.408C512.604 393.408 515.974 392.256 518.705 389.952C521.521 387.563 522.929 384.747 522.929 381.504C522.929 378.859 521.948 376.597 519.985 374.72C518.022 372.757 515.59 371.349 512.689 370.496C505.094 368.448 498.609 366.272 493.233 363.968C487.942 361.664 484.017 358.635 481.457 354.88C478.897 351.125 477.958 346.091 478.641 339.776C479.238 334.827 480.86 330.731 483.505 327.488C486.236 324.16 489.649 321.685 493.745 320.064C497.926 318.443 502.534 317.632 507.569 317.632C512.092 317.632 516.828 318.357 521.777 319.808C526.726 321.173 531.633 323.477 536.497 326.72L525.617 337.984C523.142 336.619 520.454 335.467 517.553 334.528C514.652 333.589 511.665 333.077 508.593 332.992C506.204 332.907 503.9 333.163 501.681 333.76C499.548 334.272 497.756 335.211 496.305 336.576C494.854 337.856 494.086 339.605 494.001 341.824C493.916 344.299 494.556 346.219 495.921 347.584C497.286 348.949 499.164 350.059 501.553 350.912C504.028 351.765 506.886 352.704 510.129 353.728C516.102 355.349 521.18 357.227 525.361 359.36C529.542 361.408 532.742 364.181 534.961 367.68C537.18 371.093 538.289 375.701 538.289 381.504C538.289 386.709 536.966 391.403 534.321 395.584C531.676 399.765 528.134 403.093 523.697 405.568C519.26 408.043 514.31 409.28 508.849 409.28ZM565.135 408H549.775V318.4H565.135V408ZM620.396 409.408C614.252 409.408 608.577 408.213 603.372 405.824C598.167 403.349 593.559 400.107 589.548 396.096C585.537 392 582.38 387.221 580.076 381.76C577.772 376.213 576.62 370.069 576.62 363.328C576.62 356.757 577.772 350.699 580.076 345.152C582.465 339.52 585.623 334.613 589.548 330.432C593.473 326.336 598.039 323.093 603.244 320.704C608.535 318.315 614.252 317.12 620.396 317.12C626.881 317.12 633.068 318.613 638.956 321.6C644.844 324.501 650.305 329.024 655.34 335.168L642.924 345.408C639.425 341.056 635.799 337.941 632.044 336.064C628.289 334.101 624.407 333.12 620.396 333.12C616.556 333.12 612.972 333.888 609.644 335.424C606.401 336.96 603.457 339.093 600.812 341.824C598.252 344.469 596.247 347.627 594.796 351.296C593.345 354.88 592.62 358.891 592.62 363.328C592.62 367.765 593.345 371.776 594.796 375.36C596.247 378.859 598.252 381.973 600.812 384.704C603.372 387.435 606.316 389.568 609.644 391.104C612.972 392.64 616.556 393.408 620.396 393.408C624.407 393.408 628.289 392.469 632.044 390.592C635.799 388.629 639.425 385.472 642.924 381.12L655.34 391.36C650.305 397.504 644.844 402.069 638.956 405.056C633.068 407.957 626.881 409.408 620.396 409.408ZM696.724 409.28C692.884 409.28 689.001 408.683 685.076 407.488C681.236 406.293 677.609 404.672 674.196 402.624C670.868 400.491 668.009 398.144 665.62 395.584L677.012 384.576C679.572 387.221 682.644 389.355 686.228 390.976C689.897 392.597 693.311 393.408 696.468 393.408C700.479 393.408 703.849 392.256 706.58 389.952C709.396 387.563 710.804 384.747 710.804 381.504C710.804 378.859 709.823 376.597 707.86 374.72C705.897 372.757 703.465 371.349 700.564 370.496C692.969 368.448 686.484 366.272 681.108 363.968C675.817 361.664 671.892 358.635 669.332 354.88C666.772 351.125 665.833 346.091 666.516 339.776C667.113 334.827 668.735 330.731 671.38 327.488C674.111 324.16 677.524 321.685 681.62 320.064C685.801 318.443 690.409 317.632 695.444 317.632C699.967 317.632 704.703 318.357 709.652 319.808C714.601 321.173 719.508 323.477 724.372 326.72L713.492 337.984C711.017 336.619 708.329 335.467 705.428 334.528C702.527 333.589 699.54 333.077 696.468 332.992C694.079 332.907 691.775 333.163 689.556 333.76C687.423 334.272 685.631 335.211 684.18 336.576C682.729 337.856 681.961 339.605 681.876 341.824C681.791 344.299 682.431 346.219 683.796 347.584C685.161 348.949 687.039 350.059 689.428 350.912C691.903 351.765 694.761 352.704 698.004 353.728C703.977 355.349 709.055 357.227 713.236 359.36C717.417 361.408 720.617 364.181 722.836 367.68C725.055 371.093 726.164 375.701 726.164 381.504C726.164 386.709 724.841 391.403 722.196 395.584C719.551 399.765 716.009 403.093 711.572 405.568C707.135 408.043 702.185 409.28 696.724 409.28Z" fill="#E15D50"/>
<path d="M283.12 460.648C280.432 460.648 278.288 460.872 276.688 461.32C275.088 461.768 273.936 462.6 273.232 463.816C272.592 465.032 272.24 466.824 272.176 469.192H279.28V479.272H272.176V517.192H260.848V479.272H253.84V469.192H260.944C260.944 462.728 262.704 457.704 266.224 454.12C269.744 450.536 275.376 448.936 283.12 449.32V460.648ZM309.228 518.248C304.62 518.248 300.556 517.256 297.036 515.272C293.58 513.224 290.86 510.408 288.876 506.824C286.956 503.176 285.996 498.952 285.996 494.152C285.996 485.704 288.108 479.336 292.332 475.048C296.62 470.696 302.252 468.52 309.228 468.52C313.772 468.52 317.772 469.48 321.228 471.4C324.748 473.32 327.5 476.2 329.484 480.04C331.468 483.816 332.46 488.52 332.46 494.152C332.46 498.952 331.468 503.176 329.484 506.824C327.5 510.408 324.748 513.224 321.228 515.272C317.772 517.256 313.772 518.248 309.228 518.248ZM309.228 507.208C311.852 507.208 314.06 506.6 315.852 505.384C317.708 504.104 319.084 502.472 319.98 500.488C320.94 498.504 321.42 496.392 321.42 494.152C321.42 490.12 320.364 486.696 318.252 483.88C316.204 481 313.196 479.56 309.228 479.56C305.388 479.56 302.38 480.936 300.204 483.688C298.092 486.44 297.036 489.928 297.036 494.152C297.036 496.456 297.516 498.6 298.476 500.584C299.436 502.568 300.812 504.168 302.604 505.384C304.46 506.6 306.668 507.208 309.228 507.208ZM341.144 517V469H352.568V472.552C355.064 469.992 358.04 468.744 361.496 468.808C365.016 468.872 368.888 469.576 373.112 470.92L367.544 480.808C365.112 479.976 362.712 479.72 360.344 480.04C358.04 480.36 356.152 481.064 354.68 482.152C353.208 483.24 352.504 484.552 352.568 486.088V517H341.144ZM297.136 601.136C297.136 604.528 296.688 607.824 295.792 611.024C294.96 614.224 293.648 617.072 291.856 619.568C290.064 622 287.76 623.856 284.944 625.136C283.088 625.968 280.912 626.352 278.416 626.288C275.92 626.288 273.552 625.936 271.312 625.232C269.136 624.464 267.472 623.44 266.32 622.16V626H254.8V558.8H266.32V579.632C267.536 578.736 269.136 578.128 271.12 577.808C273.104 577.488 274.8 577.328 276.208 577.328C280.752 577.328 284.56 578.416 287.632 580.592C290.768 582.704 293.136 585.552 294.736 589.136C296.336 592.72 297.136 596.72 297.136 601.136ZM285.52 601.136C285.52 597.616 284.592 594.864 282.736 592.88C280.944 590.832 278.576 589.584 275.632 589.136C272.752 588.688 269.648 589.136 266.32 590.48V612.56C269.712 614.608 272.848 615.472 275.728 615.152C278.672 614.768 281.04 613.392 282.832 611.024C284.624 608.592 285.52 605.296 285.52 601.136ZM317.749 626.48C312.885 626.224 309.205 624.848 306.709 622.352C304.213 619.792 302.965 616.272 302.965 611.792C302.965 608.528 303.797 605.744 305.461 603.44C307.125 601.072 309.333 599.216 312.085 597.872C314.837 596.528 317.877 595.696 321.205 595.376C324.597 595.056 328.021 595.28 331.477 596.048V593.072C331.477 591.024 330.645 589.552 328.981 588.656C327.317 587.76 325.269 587.344 322.837 587.408C320.469 587.472 318.069 587.952 315.637 588.848C313.269 589.68 311.349 590.896 309.877 592.496L303.445 585.488C305.877 583.12 308.757 581.264 312.085 579.92C315.413 578.576 318.837 577.808 322.357 577.616C325.941 577.424 329.301 577.84 332.437 578.864C335.637 579.888 338.261 581.552 340.309 583.856C341.909 585.648 342.805 588.016 342.997 590.96C343.189 593.904 343.285 597.136 343.285 600.656V626H331.573V621.584C329.589 623.44 327.381 624.752 324.949 625.52C322.517 626.224 320.117 626.544 317.749 626.48ZM331.189 612.464V604.208C324.533 603.696 319.893 604.112 317.269 605.456C314.709 606.8 313.429 608.88 313.429 611.696C313.429 613.488 314.037 614.8 315.253 615.632C316.533 616.4 318.101 616.784 319.957 616.784C321.877 616.72 323.829 616.336 325.813 615.632C327.861 614.864 329.653 613.808 331.189 612.464ZM395.199 601.136C395.199 604.528 394.751 607.824 393.855 611.024C393.023 614.224 391.711 617.072 389.919 619.568C388.127 622 385.823 623.856 383.007 625.136C381.151 625.968 378.975 626.352 376.479 626.288C373.983 626.288 371.615 625.936 369.375 625.232C367.199 624.464 365.535 623.44 364.383 622.16V626H352.863V558.8H364.383V579.632C365.599 578.736 367.199 578.128 369.183 577.808C371.167 577.488 372.863 577.328 374.271 577.328C378.815 577.328 382.623 578.416 385.695 580.592C388.831 582.704 391.199 585.552 392.799 589.136C394.399 592.72 395.199 596.72 395.199 601.136ZM383.583 601.136C383.583 597.616 382.655 594.864 380.799 592.88C379.007 590.832 376.639 589.584 373.695 589.136C370.815 588.688 367.711 589.136 364.383 590.48V612.56C367.775 614.608 370.911 615.472 373.791 615.152C376.735 614.768 379.103 613.392 380.895 611.024C382.687 608.592 383.583 605.296 383.583 601.136ZM410.871 572.336C408.887 572.336 407.223 571.664 405.879 570.32C404.535 568.976 403.863 567.312 403.863 565.328C403.863 563.408 404.535 561.776 405.879 560.432C407.223 559.088 408.887 558.416 410.871 558.416C412.791 558.416 414.423 559.088 415.767 560.432C417.111 561.776 417.783 563.408 417.783 565.328C417.783 567.312 417.111 568.976 415.767 570.32C414.423 571.664 412.791 572.336 410.871 572.336ZM416.151 626H405.591V578H416.151V626ZM470.543 606.416H436.943C437.199 609.296 438.287 611.504 440.207 613.04C442.127 614.576 444.495 615.472 447.311 615.728C450.127 615.92 453.007 615.536 455.951 614.576C458.959 613.552 461.647 612.016 464.015 609.968L470.351 618.704C466.831 621.648 463.247 623.76 459.599 625.04C456.015 626.256 452.463 626.864 448.943 626.864C440.815 626.864 434.703 624.592 430.607 620.048C426.575 615.504 424.559 609.072 424.559 600.752C424.559 596.016 425.487 591.888 427.343 588.368C429.263 584.848 431.951 582.128 435.407 580.208C438.927 578.288 443.055 577.36 447.791 577.424C458.159 577.552 465.071 581.616 468.527 589.616C469.487 591.92 470.095 594.448 470.351 597.2C470.671 599.952 470.735 603.024 470.543 606.416ZM448.847 588.176C444.943 588.176 441.967 589.232 439.919 591.344C437.935 593.456 436.943 595.792 436.943 598.352H460.655C460.655 595.728 459.631 593.392 457.583 591.344C455.599 589.232 452.687 588.176 448.847 588.176ZM478.465 619.472L485.185 612.272C488.577 615.216 492.065 616.688 495.649 616.688C496.673 616.688 497.601 616.592 498.433 616.4C499.329 616.144 500.065 615.76 500.641 615.248C501.409 614.544 501.857 613.712 501.985 612.752C502.113 611.728 502.113 610.896 501.985 610.256C501.729 609.104 500.929 608.208 499.585 607.568C498.305 606.864 496.705 606.256 494.785 605.744C492.929 605.168 491.009 604.464 489.025 603.632C487.041 602.8 485.281 601.68 483.745 600.272C481.249 597.904 479.809 595.408 479.425 592.784C479.105 590.096 479.617 587.6 480.961 585.296C482.369 582.992 484.417 581.136 487.105 579.728C489.793 578.256 492.929 577.52 496.513 577.52C499.905 577.52 502.945 578.128 505.633 579.344C508.321 580.496 510.465 582 512.065 583.856L504.769 590.384C503.745 589.424 502.465 588.72 500.929 588.272C499.457 587.76 498.017 587.504 496.609 587.504C495.137 587.504 493.857 587.824 492.769 588.464C491.681 589.04 491.137 590.064 491.137 591.536C491.137 592.688 491.585 593.616 492.481 594.32C493.377 595.024 494.529 595.632 495.937 596.144C497.409 596.656 498.977 597.2 500.641 597.776C502.369 598.288 504.001 598.96 505.537 599.792C507.521 600.816 509.185 602.288 510.529 604.208C511.873 606.064 512.545 608.496 512.545 611.504C512.545 614.768 511.745 617.52 510.145 619.76C508.609 622 506.561 623.728 504.001 624.944C501.441 626.096 498.625 626.672 495.553 626.672C492.545 626.672 489.537 626.096 486.529 624.944C483.585 623.728 480.897 621.904 478.465 619.472Z" fill="#32B1B7"/>
<path d="M567.414 761.528C565.11 761.528 562.982 761.08 561.03 760.184C559.078 759.256 557.35 758.04 555.846 756.536C554.342 755 553.158 753.208 552.294 751.16C551.43 749.08 550.998 746.776 550.998 744.248C550.998 741.784 551.43 739.512 552.294 737.432C553.19 735.32 554.374 733.48 555.846 731.912C557.318 730.376 559.03 729.16 560.982 728.264C562.966 727.368 565.11 726.92 567.414 726.92C569.846 726.92 572.166 727.48 574.374 728.6C576.582 729.688 578.63 731.384 580.518 733.688L575.862 737.528C574.55 735.896 573.19 734.728 571.782 734.024C570.374 733.288 568.918 732.92 567.414 732.92C565.974 732.92 564.63 733.208 563.382 733.784C562.166 734.36 561.062 735.16 560.07 736.184C559.11 737.176 558.358 738.36 557.814 739.736C557.27 741.08 556.998 742.584 556.998 744.248C556.998 745.912 557.27 747.416 557.814 748.76C558.358 750.072 559.11 751.24 560.07 752.264C561.03 753.288 562.134 754.088 563.382 754.664C564.63 755.24 565.974 755.528 567.414 755.528C568.918 755.528 570.374 755.176 571.782 754.472C573.19 753.736 574.55 752.552 575.862 750.92L580.518 754.76C578.63 757.064 576.582 758.776 574.374 759.896C572.166 760.984 569.846 761.528 567.414 761.528ZM605.685 761H599.925V747.176C599.925 745.544 599.493 744.36 598.629 743.624C597.797 742.888 596.645 742.52 595.173 742.52C593.829 742.52 592.741 742.952 591.909 743.816C591.109 744.648 590.709 745.528 590.709 746.456V761H584.949V727.4H590.709V738.296C591.477 737.656 592.389 737.24 593.445 737.048C594.533 736.824 595.653 736.76 596.805 736.856C599.717 737.208 601.925 738.328 603.429 740.216C604.933 742.072 605.685 744.392 605.685 747.176V761ZM610.025 761V737H615.737V738.776C616.985 737.496 618.473 736.872 620.201 736.904C621.961 736.936 623.897 737.288 626.009 737.96L623.225 742.904C622.009 742.488 620.809 742.36 619.625 742.52C618.473 742.68 617.529 743.032 616.793 743.576C616.057 744.12 615.705 744.776 615.737 745.544V761H610.025ZM632.42 734.168C631.428 734.168 630.596 733.832 629.924 733.16C629.252 732.488 628.916 731.656 628.916 730.664C628.916 729.704 629.252 728.888 629.924 728.216C630.596 727.544 631.428 727.208 632.42 727.208C633.38 727.208 634.196 727.544 634.868 728.216C635.54 728.888 635.876 729.704 635.876 730.664C635.876 731.656 635.54 732.488 634.868 733.16C634.196 733.832 633.38 734.168 632.42 734.168ZM635.06 761H629.78V737H635.06V761ZM639.264 757.736L642.624 754.136C644.32 755.608 646.064 756.344 647.856 756.344C648.368 756.344 648.832 756.296 649.248 756.2C649.696 756.072 650.064 755.88 650.352 755.624C650.736 755.272 650.96 754.856 651.024 754.376C651.088 753.864 651.088 753.448 651.024 753.128C650.896 752.552 650.496 752.104 649.824 751.784C649.184 751.432 648.384 751.128 647.424 750.872C646.496 750.584 645.536 750.232 644.544 749.816C643.552 749.4 642.672 748.84 641.904 748.136C640.656 746.952 639.936 745.704 639.744 744.392C639.584 743.048 639.84 741.8 640.512 740.648C641.216 739.496 642.24 738.568 643.584 737.864C644.928 737.128 646.496 736.76 648.288 736.76C649.984 736.76 651.504 737.064 652.848 737.672C654.192 738.248 655.264 739 656.064 739.928L652.416 743.192C651.904 742.712 651.264 742.36 650.496 742.136C649.76 741.88 649.04 741.752 648.336 741.752C647.6 741.752 646.96 741.912 646.416 742.232C645.872 742.52 645.6 743.032 645.6 743.768C645.6 744.344 645.824 744.808 646.272 745.16C646.72 745.512 647.296 745.816 648 746.072C648.736 746.328 649.52 746.6 650.352 746.888C651.216 747.144 652.032 747.48 652.8 747.896C653.792 748.408 654.624 749.144 655.296 750.104C655.968 751.032 656.304 752.248 656.304 753.752C656.304 755.384 655.904 756.76 655.104 757.88C654.336 759 653.312 759.864 652.032 760.472C650.752 761.048 649.344 761.336 647.808 761.336C646.304 761.336 644.8 761.048 643.296 760.472C641.824 759.864 640.48 758.952 639.264 757.736ZM696.934 733.256H684.598V741.848H694.582V747.176H684.598V761H678.838V727.4H696.934V733.256ZM720.381 751.208H703.581C703.709 752.648 704.253 753.752 705.213 754.52C706.173 755.288 707.357 755.736 708.765 755.864C710.173 755.96 711.613 755.768 713.085 755.288C714.589 754.776 715.933 754.008 717.117 752.984L720.285 757.352C718.525 758.824 716.733 759.88 714.909 760.52C713.117 761.128 711.341 761.432 709.581 761.432C705.517 761.432 702.461 760.296 700.413 758.024C698.397 755.752 697.389 752.536 697.389 748.376C697.389 746.008 697.853 743.944 698.781 742.184C699.741 740.424 701.085 739.064 702.813 738.104C704.573 737.144 706.637 736.68 709.005 736.712C714.189 736.776 717.645 738.808 719.373 742.808C719.853 743.96 720.157 745.224 720.285 746.6C720.445 747.976 720.477 749.512 720.381 751.208ZM709.533 742.088C707.581 742.088 706.093 742.616 705.069 743.672C704.077 744.728 703.581 745.896 703.581 747.176H715.437C715.437 745.864 714.925 744.696 713.901 743.672C712.909 742.616 711.453 742.088 709.533 742.088ZM724.822 761V737H730.534V738.776C731.782 737.496 733.27 736.872 734.998 736.904C736.758 736.936 738.694 737.288 740.806 737.96L738.022 742.904C736.806 742.488 735.606 742.36 734.422 742.52C733.27 742.68 732.326 743.032 731.59 743.576C730.854 744.12 730.502 744.776 730.534 745.544V761H724.822ZM744.65 761V737H750.362V738.776C751.61 737.496 753.098 736.872 754.826 736.904C756.586 736.936 758.522 737.288 760.634 737.96L757.85 742.904C756.634 742.488 755.434 742.36 754.25 742.52C753.098 742.68 752.154 743.032 751.418 743.576C750.682 744.12 750.33 744.776 750.362 745.544V761H744.65ZM767.045 734.168C766.053 734.168 765.221 733.832 764.549 733.16C763.877 732.488 763.541 731.656 763.541 730.664C763.541 729.704 763.877 728.888 764.549 728.216C765.221 727.544 766.053 727.208 767.045 727.208C768.005 727.208 768.821 727.544 769.493 728.216C770.165 728.888 770.501 729.704 770.501 730.664C770.501 731.656 770.165 732.488 769.493 733.16C768.821 733.832 768.005 734.168 767.045 734.168ZM769.685 761H764.405V737H769.685V761ZM796.881 751.208H780.081C780.209 752.648 780.753 753.752 781.713 754.52C782.673 755.288 783.857 755.736 785.265 755.864C786.673 755.96 788.113 755.768 789.585 755.288C791.089 754.776 792.433 754.008 793.617 752.984L796.785 757.352C795.025 758.824 793.233 759.88 791.409 760.52C789.617 761.128 787.841 761.432 786.081 761.432C782.017 761.432 778.961 760.296 776.913 758.024C774.897 755.752 773.889 752.536 773.889 748.376C773.889 746.008 774.353 743.944 775.281 742.184C776.241 740.424 777.585 739.064 779.313 738.104C781.073 737.144 783.137 736.68 785.505 736.712C790.689 736.776 794.145 738.808 795.873 742.808C796.353 743.96 796.657 745.224 796.785 746.6C796.945 747.976 796.977 749.512 796.881 751.208ZM786.033 742.088C784.081 742.088 782.593 742.616 781.569 743.672C780.577 744.728 780.081 745.896 780.081 747.176H791.937C791.937 745.864 791.425 744.696 790.401 743.672C789.409 742.616 787.953 742.088 786.033 742.088Z" fill="black"/>
<path d="M1062.88 516.818C1062.88 550.463 1049.39 582.729 1025.39 606.52C1001.39 630.311 968.842 643.676 934.9 643.676C900.958 643.676 868.406 630.311 844.406 606.52C820.405 582.729 806.922 550.463 806.922 516.818C806.922 483.173 820.405 450.906 844.406 427.115C868.406 403.325 900.958 389.959 934.9 389.959C968.842 389.959 1001.39 403.325 1025.39 427.115C1049.39 450.906 1062.88 483.173 1062.88 516.818Z" stroke="black" stroke-width="2.17744" stroke-miterlimit="10"/>
<path d="M977.597 590.124C967.885 595.685 957.163 599.295 946.044 600.748C934.924 602.201 923.625 601.469 912.791 598.592C901.957 595.716 891.801 590.753 882.902 583.985C874.004 577.218 866.538 568.779 860.93 559.151C855.322 549.523 851.682 538.894 850.219 527.871C848.756 516.848 849.497 505.648 852.401 494.91C855.305 484.171 860.315 474.105 867.144 465.286C873.974 456.467 882.488 449.068 892.203 443.511C901.915 437.95 912.637 434.34 923.756 432.887C934.876 431.434 946.175 432.166 957.009 435.043C967.843 437.919 977.999 442.883 986.897 449.65C995.796 456.418 1003.26 464.856 1008.87 474.484C1014.48 484.113 1018.12 494.742 1019.58 505.764C1021.04 516.787 1020.3 527.987 1017.4 538.726C1014.49 549.464 1009.48 559.53 1002.66 568.349C995.826 577.168 987.311 584.567 977.597 590.124Z" stroke="black" stroke-width="2.17747" stroke-miterlimit="10"/>
<path d="M848.197 665.677C828.472 654.393 811.183 639.368 797.317 621.459C783.451 603.551 773.279 583.111 767.383 561.305C761.487 539.5 759.982 516.757 762.953 494.375C765.925 471.993 773.316 450.41 784.703 430.86C796.09 411.309 811.251 394.174 829.319 380.432C847.388 366.689 868.01 356.61 890.009 350.769C912.007 344.928 934.951 343.439 957.53 346.389C980.11 349.338 1001.88 356.667 1021.6 367.958C1041.33 379.242 1058.62 394.268 1072.48 412.176C1086.35 430.084 1096.52 450.525 1102.42 472.33C1108.31 494.135 1109.82 516.878 1106.85 539.26C1103.87 561.642 1096.48 583.225 1085.1 602.776C1073.71 622.326 1058.55 639.462 1040.48 653.204C1022.41 666.946 1001.79 677.025 979.791 682.866C957.792 688.708 934.848 690.196 912.269 687.247C889.69 684.297 867.919 676.968 848.197 665.677Z" stroke="black" stroke-width="2.17747" stroke-miterlimit="10"/>
<path d="M827.023 391.851C827.023 398.657 821.457 404.174 814.591 404.174C807.726 404.174 802.16 398.657 802.16 391.851C802.16 385.046 807.726 379.529 814.591 379.529C821.457 379.529 827.023 385.046 827.023 391.851Z" fill="#85CA66" stroke="black" stroke-width="1.62799" stroke-miterlimit="10"/>
<path d="M952.137 513.474C952.601 547.874 935.736 552.259 924.173 544.138C912.61 536.017 894.22 540.588 911.407 513.692C921.698 497.588 931.476 497.306 931.643 486.525C931.934 467.696 935.486 459.887 952.525 468.036C973.073 477.863 964.644 488.129 958.451 495.286C953.958 500.477 952.1 510.757 952.137 513.474Z" fill="#FFD2A3" stroke="white"/>
<path d="M985.982 539.376C968.552 577.946 953.533 554.009 924.027 542.924C894.52 531.84 862.752 533.426 879.13 499.234C896.84 462.261 911.579 484.601 941.085 495.685C970.591 506.77 1001.28 505.526 985.982 539.376Z" fill="#32B1B7" stroke="white" stroke-width="0.9255"/>
<path d="M898.519 505.933C892.47 521.768 891.711 524.667 886.497 520.732C883.063 518.14 887.091 509.549 890.416 501.245C894.738 490.451 902.616 484.37 905.73 490.271C907.036 492.748 901.284 498.693 898.519 505.933Z" fill="#FDDF5D" stroke="white" stroke-width="0.9255"/>
<path d="M968.304 534.668C974.353 518.833 975.112 515.935 980.326 519.87C983.76 522.462 979.732 531.052 976.407 539.357C972.085 550.15 964.207 556.232 961.094 550.33C959.787 547.854 965.539 541.909 968.304 534.668Z" fill="#FDDF5D" stroke="white" stroke-width="0.9255"/>
<path d="M898.01 524.149C899.032 517.995 900.649 512.65 904.324 508.805C909.872 503.002 926.024 504.312 933.856 507.196C949.52 512.966 960.019 526.945 957.307 538.42C954.595 549.895 952.237 551.51 949.191 555.023C931.399 566.577 894.201 545.235 898.171 524.551C900.883 513.076 915.78 508.451 931.444 514.22C947.108 519.99 957.447 534.169 954.735 545.644" fill="#32B1B7"/>
<path d="M898.01 524.149C899.032 517.995 900.649 512.65 904.324 508.805C909.872 503.002 926.024 504.312 933.856 507.196C949.52 512.966 960.019 526.945 957.307 538.42C954.595 549.895 952.237 551.51 949.191 555.023C931.399 566.577 894.201 545.235 898.171 524.551C900.883 513.076 915.78 508.451 931.444 514.22C947.108 519.99 957.447 534.169 954.735 545.644" stroke="white"/>
<path d="M1063.64 463.233C1063.64 464.852 1063.32 466.454 1062.7 467.949C1062.07 469.444 1061.16 470.802 1060 471.947C1058.85 473.091 1057.48 473.999 1055.97 474.618C1054.46 475.237 1052.85 475.556 1051.21 475.556C1049.58 475.556 1047.96 475.237 1046.46 474.618C1044.95 473.999 1043.58 473.091 1042.42 471.947C1041.27 470.802 1040.35 469.444 1039.73 467.949C1039.1 466.454 1038.78 464.852 1038.78 463.233C1038.78 461.615 1039.1 460.013 1039.73 458.518C1040.35 457.023 1041.27 455.664 1042.42 454.52C1043.58 453.376 1044.95 452.468 1046.46 451.849C1047.96 451.229 1049.58 450.911 1051.21 450.911C1052.85 450.911 1054.46 451.229 1055.97 451.849C1057.48 452.468 1058.85 453.376 1060 454.52C1061.16 455.664 1062.07 457.023 1062.7 458.518C1063.32 460.013 1063.64 461.615 1063.64 463.233Z" fill="#85CA66" stroke="black" stroke-width="1.62799" stroke-miterlimit="10"/>
<path d="M925.091 596.805C925.091 598.423 924.77 600.025 924.145 601.52C923.52 603.015 922.605 604.374 921.45 605.518C920.296 606.662 918.926 607.57 917.417 608.189C915.909 608.808 914.293 609.127 912.66 609.127C911.028 609.127 909.411 608.808 907.903 608.189C906.395 607.57 905.024 606.662 903.87 605.518C902.716 604.374 901.8 603.015 901.175 601.52C900.55 600.025 900.229 598.423 900.229 596.805C900.229 595.186 900.55 593.584 901.175 592.089C901.8 590.594 902.716 589.236 903.87 588.091C905.024 586.947 906.395 586.039 907.903 585.42C909.411 584.801 911.028 584.482 912.66 584.482C914.293 584.482 915.909 584.801 917.417 585.42C918.926 586.039 920.296 586.947 921.45 588.091C922.605 589.236 923.52 590.594 924.145 592.089C924.77 593.584 925.091 595.186 925.091 596.805Z" fill="#85CA66" stroke="black" stroke-width="1.62799" stroke-miterlimit="10"/>
</svg>
