<svg width="474" height="470" viewBox="0 0 474 470" fill="none" xmlns="http://www.w3.org/2000/svg">
<path d="M364.878 234.818C364.878 268.463 351.394 300.73 327.394 324.52C303.393 348.311 270.842 361.676 236.9 361.676C202.958 361.676 170.406 348.311 146.406 324.52C122.405 300.73 108.922 268.463 108.922 234.818C108.922 201.173 122.405 168.906 146.406 145.115C170.406 121.325 202.958 107.959 236.9 107.959C270.842 107.959 303.393 121.325 327.394 145.115C351.394 168.906 364.878 201.173 364.878 234.818Z" stroke="black" stroke-width="2.17744" stroke-miterlimit="10"/>
<path d="M279.597 308.124C269.885 313.685 259.163 317.295 248.044 318.748C236.924 320.201 225.625 319.469 214.791 316.593C203.957 313.716 193.801 308.753 184.902 301.985C176.004 295.218 168.538 286.779 162.93 277.151C157.322 267.523 153.682 256.894 152.219 245.871C150.756 234.849 151.497 223.648 154.401 212.91C157.305 202.171 162.315 192.105 169.144 183.286C175.974 174.467 184.489 167.068 194.203 161.511C203.915 155.95 214.637 152.34 225.756 150.887C236.876 149.434 248.175 150.167 259.009 153.043C269.843 155.919 279.999 160.883 288.897 167.65C297.796 174.418 305.262 182.856 310.87 192.485C316.478 202.113 320.118 212.742 321.581 223.764C323.044 234.787 322.303 245.987 319.399 256.726C316.494 267.464 311.485 277.53 304.656 286.349C297.826 295.168 289.311 302.568 279.597 308.124Z" stroke="black" stroke-width="2.17747" stroke-miterlimit="10"/>
<path d="M150.197 383.677C130.472 372.393 113.183 357.368 99.3169 339.459C85.4507 321.551 75.2791 301.111 69.3829 279.305C63.4868 257.5 61.9816 234.757 64.9533 212.375C67.925 189.993 75.3155 168.41 86.7026 148.86C98.0897 129.309 113.25 112.174 131.319 98.4316C149.388 84.6895 170.01 74.6101 192.009 68.769C214.007 62.9279 236.951 61.4394 259.53 64.3887C282.109 67.338 303.881 74.6673 323.603 85.9579C343.327 97.2423 360.617 112.268 374.483 130.176C388.349 148.084 398.521 168.525 404.417 190.33C410.313 212.135 411.818 234.878 408.846 257.26C405.875 279.642 398.484 301.225 387.097 320.776C375.71 340.326 360.549 357.462 342.481 371.204C324.412 384.946 303.79 395.025 281.791 400.866C259.792 406.708 236.848 408.196 214.269 405.247C191.69 402.297 169.918 394.968 150.197 383.677Z" stroke="black" stroke-width="2.17747" stroke-miterlimit="10"/>
<path d="M129.023 109.851C129.023 116.657 123.457 122.174 116.591 122.174C109.726 122.174 104.16 116.657 104.16 109.851C104.16 103.045 109.726 97.5285 116.591 97.5285C123.457 97.5285 129.023 103.045 129.023 109.851Z" fill="#85CA66" stroke="black" stroke-width="1.62799" stroke-miterlimit="10"/>
<path d="M254.137 231.474C254.601 265.874 237.736 270.259 226.173 262.138C214.61 254.017 196.22 258.588 213.407 231.692C223.698 215.588 233.476 215.306 233.643 204.525C233.934 185.696 237.486 177.886 254.525 186.036C275.073 195.863 266.644 206.129 260.451 213.286C255.958 218.477 254.1 228.757 254.137 231.474Z" fill="#FFD2A3" stroke="white"/>
<path d="M287.982 257.376C270.552 295.946 255.533 272.009 226.027 260.924C196.52 249.84 164.752 251.426 181.13 217.234C198.84 180.261 213.579 202.601 243.085 213.685C272.591 224.77 303.279 223.526 287.982 257.376Z" fill="#32B1B7" stroke="white" stroke-width="0.9255"/>
<path d="M200.519 223.933C194.47 239.768 193.711 242.667 188.497 238.732C185.063 236.14 189.091 227.549 192.416 219.245C196.738 208.451 204.616 202.37 207.73 208.271C209.036 210.748 203.284 216.693 200.519 223.933Z" fill="#FDDF5D" stroke="white" stroke-width="0.9255"/>
<path d="M270.304 252.668C276.353 236.833 277.112 233.935 282.326 237.87C285.76 240.462 281.732 249.052 278.407 257.357C274.085 268.15 266.207 274.232 263.094 268.33C261.787 265.854 267.539 259.908 270.304 252.668Z" fill="#FDDF5D" stroke="white" stroke-width="0.9255"/>
<path d="M200.011 242.149C201.033 235.995 202.649 230.65 206.324 226.805C211.872 221.002 228.024 222.312 235.856 225.196C251.52 230.966 262.019 244.945 259.307 256.42C256.595 267.895 254.237 269.51 251.191 273.023C233.399 284.577 196.201 263.235 200.171 242.551C202.884 231.076 217.78 226.451 233.444 232.22C249.108 237.99 259.447 252.169 256.735 263.644" fill="#32B1B7"/>
<path d="M200.011 242.149C201.033 235.995 202.649 230.65 206.324 226.805C211.872 221.002 228.024 222.312 235.856 225.196C251.52 230.966 262.019 244.945 259.307 256.42C256.595 267.895 254.237 269.51 251.191 273.023C233.399 284.577 196.201 263.235 200.171 242.551C202.884 231.076 217.78 226.451 233.444 232.22C249.108 237.99 259.447 252.169 256.735 263.644" stroke="white"/>
<path d="M365.645 181.233C365.645 182.852 365.323 184.454 364.699 185.949C364.074 187.444 363.158 188.802 362.004 189.947C360.849 191.091 359.479 191.999 357.971 192.618C356.463 193.237 354.846 193.556 353.214 193.556C351.581 193.556 349.965 193.237 348.456 192.618C346.948 191.999 345.578 191.091 344.423 189.947C343.269 188.802 342.353 187.444 341.729 185.949C341.104 184.454 340.782 182.852 340.782 181.233C340.782 179.615 341.104 178.013 341.729 176.518C342.353 175.023 343.269 173.664 344.423 172.52C345.578 171.376 346.948 170.468 348.456 169.849C349.965 169.229 351.581 168.911 353.214 168.911C354.846 168.911 356.463 169.229 357.971 169.849C359.479 170.468 360.849 171.376 362.004 172.52C363.158 173.664 364.074 175.023 364.699 176.518C365.323 178.013 365.645 179.615 365.645 181.233Z" fill="#85CA66" stroke="black" stroke-width="1.62799" stroke-miterlimit="10"/>
<path d="M227.092 314.805C227.092 316.423 226.77 318.025 226.145 319.52C225.521 321.015 224.605 322.374 223.451 323.518C222.296 324.662 220.926 325.57 219.418 326.189C217.909 326.808 216.293 327.127 214.66 327.127C213.028 327.127 211.411 326.808 209.903 326.189C208.395 325.57 207.024 324.662 205.87 323.518C204.716 322.374 203.8 321.015 203.175 319.52C202.551 318.025 202.229 316.423 202.229 314.805C202.229 313.186 202.551 311.584 203.175 310.089C203.8 308.594 204.716 307.236 205.87 306.091C207.024 304.947 208.395 304.039 209.903 303.42C211.411 302.801 213.028 302.482 214.66 302.482C216.293 302.482 217.909 302.801 219.418 303.42C220.926 304.039 222.296 304.947 223.451 306.091C224.605 307.236 225.521 308.594 226.145 310.089C226.77 311.584 227.092 313.186 227.092 314.805Z" fill="#85CA66" stroke="black" stroke-width="1.62799" stroke-miterlimit="10"/>
</svg>
